<svg xmlns="http://www.w3.org/2000/svg" width="600" height="600" viewBox="0 0 600 600">
  <defs>
    <style>
      .cls-1 {
        fill: #030303;
        stroke: #000;
        stroke-width: 4px;
        fill-rule: evenodd;
      }
    </style>
  </defs>
  <path class="cls-1" d="M267,432L336,25l43,6s-5.7,26.958,45,103c59.869,89.787,82.378,127.853,79,178-3.35,49.723-7.54,82.112-84,154-25.67,24.135-30.087-.254,16-60,34.018-44.1,45.8-179.771-84-220-5.366-1.663-46.286,332.6-64,346-22.542,17.05-103.387,83.138-180-4C31.677,442.329,181.374,329,267,432ZM24,362m707,5-12-48-75,27"/>
</svg>
