<svg version="1" xmlns="http://www.w3.org/2000/svg" width="933.333" height="933.333" viewBox="0 0 700.000000 700.000000"><path d="M389.6 29.7c-.3 1.6-18.1 106.5-39.6 233.3-21.5 126.8-39.2 231.5-39.5 232.8-.5 2.2-1.3 1.6-9.9-6.6-34.7-33.1-79.3-43.4-123.6-28.6-35.2 11.7-63.4 38.4-74 70-2.9 8.8-3.4 11.5-3.8 23.4-.4 14.8.7 21.8 5.5 33.9 5.3 13.4 13.6 25.2 27.9 39.5 52.1 52.4 114.4 56 182.2 10.5 18.8-12.6 23-16.3 25.8-22.6 4.4-9.9 11-37.4 17.8-73.8 8.5-46 13.7-78.3 31.2-193C405.9 241.4 409.4 220 411.1 220c1.8 0 23.9 9 31.5 12.8 39.6 19.9 69 54.7 81.3 96.1 5.5 18.3 7.2 31.3 7.2 53.4-.1 17.6-1.6 29.8-5.6 45.7-4.9 19.5-11 32.2-23.5 49-24.7 33.2-39.6 62.5-37.5 73.6.6 3.4 3.7 6.4 6.5 6.4 6.8-.1 25.9-16.1 50.2-42.3 49.3-53.1 64.1-85.5 67.6-147.7 1.5-25.7-1-44.9-8.5-66.4-10.4-29.9-26.1-57.7-71.8-127.6-31.9-48.7-40.3-63-50.4-85.8-9-20.1-15.3-43.6-13.6-50.5.8-2.9 4-2.2-28.8-6.7-12-1.6-22.7-3-23.7-3-1.2 0-2 .9-2.4 2.7z"/></svg>