<svg width="230" height="320" xmlns="http://www.w3.org/2000/svg">

 <g>
  <path id="bookmark-block" d="m 23.1257 42.6674 c 0 -3.2603 2.7397 -6 6 -6 l 143 0 c 3.2603 0 6 2.7397 6 6 l 0 268 c 0 3.2603 -0.1257 3.3326 -4.3333 -1.2222 l -72.7923 -71.4452 c -0.3475 0.2211 -75.3475 70.2211 -78.2219 72.8885 c 0 -89.3333 0 -178.6667 0 -268 z" stroke-opacity="0" fill="#ff5656" transform="translate(30 2)"/>
  <path id="bookmark-outline" d="m 10 13 C 10 8 10 6 17 6 l 143 0 c 3.2603 0 6 2.7397 6 6 l 0 268 c 0 1 0 1 0 1 l -72.4448 -71.6663 c -1.0381 0 -76.2219 70.8885 -78.2219 72.8885 L 10.3333 14.2222 z" stroke-width="16" stroke="#031c42" fill="none"/>
 </g>
</svg>
