<?xml version="1.0" standalone="no"?>
<!DOCTYPE svg PUBLIC "-//W3C//DTD SVG 20010904//EN"
 "http://www.w3.org/TR/2001/REC-SVG-20010904/DTD/svg10.dtd">
<svg version="1.0" xmlns="http://www.w3.org/2000/svg"
 width="1280.000000pt" height="1280.000000pt" viewBox="0 0 1280.000000 1280.000000"
 preserveAspectRatio="xMidYMid meet">
<g transform="translate(0.000000,1280.000000) scale(0.100000,-0.100000)"
fill="#000000" stroke="none">
<path d="M2085 12789 c-5 -5 -28 -26 -51 -47 -63 -58 -114 -141 -130 -212 -23
-102 -24 -133 -10 -450 4 -108 16 -660 20 -1006 2 -128 7 -237 11 -244 5 -7 4
-11 -1 -7 -5 3 -9 -8 -9 -24 0 -16 2 -29 5 -29 8 0 5 -44 -4 -58 -4 -7 -4 -12
1 -12 4 0 9 -87 10 -193 4 -434 11 -736 17 -745 4 -6 2 -13 -4 -17 -6 -4 -7
-12 -1 -23 5 -9 5 -26 1 -38 -5 -12 -6 -24 -3 -27 3 -3 7 -102 9 -219 6 -384
14 -829 19 -1053 2 -121 7 -355 10 -520 3 -165 8 -412 10 -550 3 -137 7 -377
10 -533 2 -155 7 -287 10 -292 3 -6 1 -10 -5 -10 -6 0 -8 -5 -4 -12 11 -17 12
-131 1 -145 -5 -7 -5 -13 -1 -13 5 0 10 -62 11 -137 1 -76 4 -264 7 -418 3
-154 8 -431 11 -615 5 -271 13 -590 15 -645 1 -5 0 -39 0 -75 0 -36 2 -184 4
-330 3 -146 8 -382 11 -525 11 -627 16 -855 21 -1080 3 -132 5 -244 5 -250 0
-72 0 -97 2 -135 1 -25 -2 -51 -7 -57 -5 -8 -5 -13 1 -13 5 0 9 -46 10 -102 3
-324 13 -801 17 -805 3 -3 1 -16 -4 -29 -5 -13 -6 -24 -2 -24 4 0 7 -68 7
-151 0 -83 3 -152 6 -154 5 -4 51 41 574 550 400 390 497 484 611 590 58 55
123 116 143 135 45 42 274 258 386 363 l80 75 5 -1095 5 -1095 40 37 c22 21
75 71 117 112 43 41 78 72 78 70 0 -2 38 33 84 77 46 45 121 115 167 158 46
42 107 98 135 125 28 26 95 89 148 138 235 218 283 263 329 308 26 26 50 47
51 47 2 0 28 24 58 52 138 133 243 228 250 228 4 0 8 7 8 15 0 8 4 15 9 15 4
0 31 22 60 49 28 27 88 82 132 122 44 41 104 97 133 124 29 28 110 104 181
170 71 66 159 148 195 181 36 34 79 74 95 89 40 36 236 219 291 272 25 24 49
43 55 43 6 0 7 5 4 10 -3 6 -3 10 2 10 4 0 37 27 71 59 l64 60 128 -127 c176
-174 1195 -1182 1612 -1594 187 -186 342 -338 344 -338 1 0 3 18 2 39 0 22 3
44 6 50 4 6 2 11 -4 11 -7 0 -8 6 -2 16 5 9 6 34 2 55 -4 21 -4 39 -1 39 4 0
6 15 4 33 -2 17 -3 46 -3 62 1 17 1 36 1 43 -2 25 -1 43 0 102 1 34 -1 63 -4
66 -3 3 -1 19 3 35 5 18 5 29 -1 29 -6 0 -6 7 -1 17 5 10 6 26 3 37 -4 10 -5
31 -3 47 l4 28 63 -62 c35 -34 213 -208 395 -387 183 -179 451 -443 598 -587
146 -145 273 -265 282 -268 14 -4 18 2 22 32 6 55 1 10814 -5 10838 -18 67
-76 131 -145 161 -32 14 -108 17 -622 19 -322 1 -589 3 -593 4 -4 0 -4 8 0 16
5 8 6 46 3 85 -3 40 -2 74 3 77 4 3 4 10 -2 17 -5 6 -6 17 -2 25 4 7 5 30 1
52 -4 21 -4 39 -1 39 4 0 6 15 4 33 -2 17 -3 46 -3 62 1 17 1 36 1 43 -1 13
-1 18 -1 96 0 28 -2 52 -4 54 -2 2 0 17 4 33 5 16 5 29 0 29 -5 0 -6 12 -2 28
7 26 6 81 -1 132 -2 14 1 33 5 43 5 10 5 17 -1 17 -7 0 -7 8 -2 23 5 13 5 30
1 37 -5 8 -6 18 -3 23 9 14 1 167 -10 207 -2 8 -7 32 -12 53 -4 20 -11 40 -16
43 -5 3 -9 13 -9 23 0 10 -7 24 -16 31 -8 8 -21 27 -29 44 -17 39 -66 92 -128
139 l-49 37 -3196 0 c-2032 -1 -3201 -5 -3207 -11z m560 -549 c5 8 11 8 19 1
7 -6 16 -8 19 -5 8 8 85 9 93 1 3 -3 17 -2 30 3 13 5 25 6 28 2 5 -9 74 -7 83
2 4 3 12 1 19 -5 8 -7 14 -7 18 0 5 7 15 7 31 1 15 -6 25 -6 25 0 0 5 12 5 30
0 18 -5 32 -5 35 1 4 5 14 5 25 -1 13 -7 21 -7 25 0 5 8 11 8 19 1 7 -6 15 -8
19 -5 9 9 78 11 83 2 3 -4 16 -3 29 2 13 5 27 6 29 1 3 -4 26 -5 51 -1 25 4
48 3 51 -1 2 -5 16 -4 29 1 13 5 27 6 29 1 3 -4 26 -5 51 -1 25 4 48 3 51 -1
2 -5 16 -4 29 1 13 5 27 6 29 1 3 -4 26 -5 51 -1 25 4 48 3 51 -1 2 -5 15 -4
28 1 13 5 27 6 30 3 8 -8 85 -7 93 1 3 3 12 1 19 -5 8 -7 14 -7 18 0 5 7 15 7
31 1 15 -6 25 -6 25 0 0 5 12 5 30 0 18 -5 32 -5 35 1 4 5 14 5 25 -1 13 -7
21 -7 25 0 5 8 11 8 19 1 7 -6 16 -8 19 -5 8 8 85 9 93 1 3 -3 17 -2 30 3 13
5 25 6 28 2 5 -9 74 -7 83 2 4 3 12 1 19 -5 8 -7 14 -7 18 0 5 7 15 7 31 1 15
-6 25 -6 25 0 0 5 12 5 30 0 18 -5 32 -5 35 1 4 5 14 5 25 -1 13 -7 21 -7 25
0 5 8 11 8 19 1 7 -6 16 -8 19 -5 8 8 85 9 93 1 3 -3 17 -2 30 3 13 5 25 6 28
2 5 -9 74 -7 83 2 4 3 12 1 19 -5 8 -7 14 -7 18 0 5 7 15 7 31 1 15 -6 25 -6
25 0 0 5 12 5 30 0 18 -5 32 -5 35 1 4 5 14 5 25 -1 13 -7 21 -7 25 0 5 8 11
8 19 1 7 -6 15 -8 19 -5 9 9 78 11 83 2 3 -4 16 -3 29 2 13 5 27 6 29 1 3 -4
26 -5 51 -1 25 4 48 3 51 -1 2 -5 16 -4 29 1 13 5 27 6 29 1 3 -4 26 -5 51 -1
25 4 48 3 51 -1 2 -5 16 -4 29 1 13 5 27 6 29 1 3 -4 26 -5 51 -1 25 4 48 3
51 -1 2 -5 15 -4 28 1 13 5 27 6 30 3 8 -8 85 -7 93 1 3 3 12 1 19 -5 8 -7 14
-7 18 0 5 7 15 7 31 1 15 -6 25 -6 25 0 0 5 12 5 30 0 18 -5 32 -5 35 1 4 5
14 5 25 -1 13 -7 21 -7 25 0 5 8 11 8 19 1 7 -6 16 -8 19 -5 8 8 85 9 93 1 3
-3 17 -2 30 3 13 5 25 6 28 2 5 -9 74 -7 83 2 4 3 12 1 19 -5 8 -7 14 -7 18 0
5 7 15 7 31 1 15 -6 25 -6 25 0 0 5 12 5 30 0 18 -5 32 -5 35 1 4 5 14 5 25
-1 13 -7 21 -7 25 0 5 8 11 8 19 1 7 -6 16 -8 19 -5 8 8 85 9 93 1 3 -3 17 -2
30 3 13 5 25 6 28 2 5 -9 74 -7 83 2 4 3 12 1 19 -5 8 -7 14 -7 18 0 5 7 15 7
31 1 15 -6 25 -6 25 0 0 5 12 5 30 0 18 -5 32 -5 35 1 4 5 14 5 25 -1 13 -7
21 -7 25 0 5 8 11 8 19 1 7 -6 15 -8 19 -5 9 9 78 11 83 2 3 -4 16 -3 29 2 13
5 27 6 29 1 3 -4 26 -5 51 -1 25 4 48 3 51 -1 2 -5 16 -4 29 1 13 5 27 6 29 1
3 -4 26 -5 51 -1 25 4 48 3 51 -1 2 -5 16 -4 29 1 13 5 27 6 29 1 3 -4 26 -5
51 -1 25 4 48 3 51 -1 2 -5 15 -4 28 1 13 5 27 6 30 3 8 -8 85 -7 93 1 3 3 12
1 19 -5 8 -7 14 -7 18 0 5 7 15 7 31 1 15 -6 25 -6 25 0 0 5 12 5 30 0 18 -5
32 -5 35 1 4 5 14 5 25 -1 13 -7 21 -7 25 0 5 8 11 8 19 1 7 -6 16 -8 19 -5 8
8 85 9 93 1 3 -3 17 -2 30 3 27 11 37 1 33 -33 -2 -12 0 -28 4 -34 4 -7 3 -22
-3 -33 -8 -15 -8 -25 -1 -33 6 -8 6 -18 1 -27 -5 -9 -5 -19 1 -27 7 -8 7 -18
-1 -32 -7 -15 -7 -21 0 -21 7 0 7 -6 0 -21 -8 -14 -8 -24 -1 -32 6 -8 6 -18 1
-27 -5 -9 -5 -19 1 -27 7 -8 7 -19 -1 -33 -8 -14 -8 -25 -1 -33 6 -8 6 -18 1
-27 -5 -9 -5 -19 2 -27 7 -9 7 -13 -2 -13 -9 0 -9 -4 -2 -13 7 -8 7 -18 2 -27
-5 -9 -5 -19 2 -27 7 -9 7 -13 -2 -13 -9 0 -9 -4 -2 -13 7 -8 7 -18 2 -27 -5
-9 -5 -19 1 -27 7 -8 7 -19 -1 -33 -8 -14 -8 -25 -1 -33 6 -8 6 -18 1 -27 -5
-9 -5 -19 1 -27 7 -8 7 -19 -1 -33 -8 -14 -8 -25 -1 -33 6 -8 6 -18 1 -27 -5
-9 -5 -19 2 -27 8 -10 7 -13 -3 -13 -10 0 -10 -3 -1 -12 7 -7 8 -17 2 -29 -6
-11 -6 -20 -1 -23 5 -3 7 -14 4 -24 -4 -17 -84 -18 -1996 -17 -1096 0 -1996
-2 -2002 -4 -5 -3 -18 -7 -28 -8 -32 -5 -97 -53 -127 -94 -26 -37 -35 -61 -44
-121 -1 -10 -5 -21 -9 -24 -4 -4 -7 -1725 -7 -3825 0 -3203 -2 -3820 -14
-3831 -7 -7 -66 -62 -131 -123 -64 -60 -145 -137 -180 -170 -35 -33 -109 -103
-165 -155 -56 -52 -128 -120 -160 -150 -31 -30 -108 -102 -170 -160 -123 -115
-157 -147 -280 -263 -45 -43 -84 -76 -87 -73 -3 3 -7 114 -9 248 -3 245 -9
574 -19 1078 -3 151 -7 397 -10 545 -3 149 -7 376 -10 505 -3 129 -7 370 -10
535 -3 165 -7 316 -8 337 -1 20 2 34 7 31 5 -4 6 0 1 7 -8 12 -15 298 -18 712
-1 120 -4 218 -7 218 -3 0 -6 9 -6 20 0 11 4 20 9 20 4 0 5 5 1 11 -9 16 -11
100 -2 105 4 3 4 13 0 22 -4 9 -8 97 -7 194 0 98 -2 178 -5 178 -3 0 -6 125
-7 278 -2 266 -7 576 -18 1102 -5 243 -11 566 -20 1065 -3 143 -7 397 -10 565
-4 168 -8 394 -9 503 -2 109 -6 200 -9 203 -3 3 -1 19 3 35 5 17 5 29 0 29 -6
0 -6 10 0 25 5 14 6 25 2 25 -9 0 -9 117 1 126 3 4 3 12 -1 18 -3 6 -7 58 -8
116 -1 94 -12 661 -18 1003 l-3 129 29 -4 c16 -3 31 -1 34 4 3 4 14 4 24 -2
13 -7 21 -7 25 0z"/>
</g>
</svg>
