<?xml version="1.0" standalone="no"?>
<!DOCTYPE svg PUBLIC "-//W3C//DTD SVG 20010904//EN"
 "http://www.w3.org/TR/2001/REC-SVG-20010904/DTD/svg10.dtd">
<svg version="1.0" xmlns="http://www.w3.org/2000/svg"
 width="700.000000pt" height="700.000000pt" viewBox="0 0 700.000000 700.000000"
 preserveAspectRatio="xMidYMid meet">
<metadata>
Created by potrace 1.11, written by Peter Selinger 2001-2013
</metadata>
<g transform="translate(0.000000,700.000000) scale(0.100000,-0.100000)"
fill="#000000" stroke="none">
<path d="M5654 5920 c-61 -19 -127 -74 -175 -145 -26 -38 -117 -193 -203 -342
-173 -303 -221 -383 -421 -694 -1163 -1812 -2240 -2983 -2810 -3054 -88 -11
-139 8 -211 80 -128 126 -236 434 -286 809 -8 64 -17 100 -26 104 -16 6 -577
-58 -592 -68 -11 -7 17 -206 55 -390 85 -404 215 -688 404 -884 127 -131 261
-208 428 -247 80 -19 113 -21 231 -16 158 6 242 25 405 91 600 244 1362 1010
2282 2296 160 224 567 830 735 1095 184 290 477 781 533 893 47 95 51 109 52
175 0 123 -62 224 -175 282 -40 21 -177 30 -226 15z"/>
</g>
</svg>
